<svg xmlns="http://www.w3.org/2000/svg" viewBox="0 0 400 300" role="img" aria-label="مشمش مجفف وتين">
  <rect width="400" height="300" fill="#0E1620"/>
  <rect x="18" y="18" width="364" height="264" fill="none" stroke="#8A6A2E" stroke-width="1"/>
  <!-- نصف مشمشة: حافة متموّجة كالمجفّف، وتجويف النواة مزاح لأعلى -->
  <path d="M142 92c31 0 57 21 58 49 1 22-9 33-7 47 2 16-21 30-51 30s-53-14-51-30
           c2-14-8-25-7-47 1-28 27-49 58-49z" fill="none" stroke="#C39A4E" stroke-width="2.2" stroke-linecap="round" stroke-linejoin="round"/>
  <ellipse cx="142" cy="141" rx="26" ry="20" fill="none" stroke="#8A6A2E" stroke-width="1.5" stroke-linecap="round"/>
  <path d="M121 134c8-6 34-6 42 0" fill="none" stroke="#8A6A2E" stroke-width="1.5" stroke-linecap="round"/>
  <!-- تينة: قطرة بعنقها وأضلاعها وفتحة نجمية -->
  <path d="M272 104c27 24 45 49 45 74 0 31-20 51-45 51s-45-20-45-51c0-25 18-50 45-74z" fill="none" stroke="#C39A4E" stroke-width="2.2" stroke-linecap="round" stroke-linejoin="round"/>
  <path d="M272 104V90M272 90c9-8 21-9 28-5-3 11-14 16-28 11z" fill="none" stroke="#8A6A2E" stroke-width="1.5" stroke-linecap="round"/>
  <path d="M251 132c-8 25-9 50-2 71M293 132c8 25 9 50 2 71" fill="none" stroke="#8A6A2E" stroke-width="1.5" stroke-linecap="round"/>
  <path d="M272 195v24M263 199l-8 15M281 199l8 15" fill="none" stroke="#8A6A2E" stroke-width="1.5" stroke-linecap="round"/>
</svg>
