<svg xmlns="http://www.w3.org/2000/svg" viewBox="0 0 400 300" role="img" aria-label="طبق بيض من ثلاثين">
  <rect width="400" height="300" fill="#0E1620"/>
  <rect x="18" y="18" width="364" height="264" fill="none" stroke="#8A6A2E" stroke-width="1"/>
  <rect x="44" y="52" width="312" height="196" fill="#152131" stroke="#8A6A2E" stroke-width="1.6" rx="6"/>
  <ellipse cx="70.0" cy="71.6" rx="17" ry="15.5" fill="none" stroke="#C39A4E" stroke-width="1.9"/>
  <ellipse cx="122.0" cy="71.6" rx="17" ry="15.5" fill="none" stroke="#C39A4E" stroke-width="1.9"/>
  <ellipse cx="174.0" cy="71.6" rx="17" ry="15.5" fill="none" stroke="#C39A4E" stroke-width="1.9"/>
  <ellipse cx="226.0" cy="71.6" rx="17" ry="15.5" fill="none" stroke="#C39A4E" stroke-width="1.9"/>
  <ellipse cx="278.0" cy="71.6" rx="17" ry="15.5" fill="none" stroke="#C39A4E" stroke-width="1.9"/>
  <ellipse cx="330.0" cy="71.6" rx="17" ry="15.5" fill="none" stroke="#C39A4E" stroke-width="1.9"/>
  <ellipse cx="70.0" cy="110.8" rx="17" ry="15.5" fill="none" stroke="#C39A4E" stroke-width="1.9"/>
  <ellipse cx="122.0" cy="110.8" rx="17" ry="15.5" fill="none" stroke="#C39A4E" stroke-width="1.9"/>
  <ellipse cx="174.0" cy="110.8" rx="17" ry="15.5" fill="none" stroke="#C39A4E" stroke-width="1.9"/>
  <ellipse cx="226.0" cy="110.8" rx="17" ry="15.5" fill="none" stroke="#C39A4E" stroke-width="1.9"/>
  <ellipse cx="278.0" cy="110.8" rx="17" ry="15.5" fill="none" stroke="#C39A4E" stroke-width="1.9"/>
  <ellipse cx="330.0" cy="110.8" rx="17" ry="15.5" fill="none" stroke="#C39A4E" stroke-width="1.9"/>
  <ellipse cx="70.0" cy="150.0" rx="17" ry="15.5" fill="none" stroke="#C39A4E" stroke-width="1.9"/>
  <ellipse cx="122.0" cy="150.0" rx="17" ry="15.5" fill="none" stroke="#C39A4E" stroke-width="1.9"/>
  <ellipse cx="174.0" cy="150.0" rx="17" ry="15.5" fill="none" stroke="#C39A4E" stroke-width="1.9"/>
  <ellipse cx="226.0" cy="150.0" rx="17" ry="15.5" fill="none" stroke="#C39A4E" stroke-width="1.9"/>
  <ellipse cx="278.0" cy="150.0" rx="17" ry="15.5" fill="none" stroke="#C39A4E" stroke-width="1.9"/>
  <ellipse cx="330.0" cy="150.0" rx="17" ry="15.5" fill="none" stroke="#C39A4E" stroke-width="1.9"/>
  <ellipse cx="70.0" cy="189.2" rx="17" ry="15.5" fill="none" stroke="#C39A4E" stroke-width="1.9"/>
  <ellipse cx="122.0" cy="189.2" rx="17" ry="15.5" fill="none" stroke="#C39A4E" stroke-width="1.9"/>
  <ellipse cx="174.0" cy="189.2" rx="17" ry="15.5" fill="none" stroke="#C39A4E" stroke-width="1.9"/>
  <ellipse cx="226.0" cy="189.2" rx="17" ry="15.5" fill="none" stroke="#C39A4E" stroke-width="1.9"/>
  <ellipse cx="278.0" cy="189.2" rx="17" ry="15.5" fill="none" stroke="#C39A4E" stroke-width="1.9"/>
  <ellipse cx="330.0" cy="189.2" rx="17" ry="15.5" fill="none" stroke="#C39A4E" stroke-width="1.9"/>
  <ellipse cx="70.0" cy="228.4" rx="17" ry="15.5" fill="none" stroke="#C39A4E" stroke-width="1.9"/>
  <ellipse cx="122.0" cy="228.4" rx="17" ry="15.5" fill="none" stroke="#C39A4E" stroke-width="1.9"/>
  <ellipse cx="174.0" cy="228.4" rx="17" ry="15.5" fill="none" stroke="#C39A4E" stroke-width="1.9"/>
  <ellipse cx="226.0" cy="228.4" rx="17" ry="15.5" fill="none" stroke="#C39A4E" stroke-width="1.9"/>
  <ellipse cx="278.0" cy="228.4" rx="17" ry="15.5" fill="none" stroke="#C39A4E" stroke-width="1.9"/>
  <ellipse cx="330.0" cy="228.4" rx="17" ry="15.5" fill="none" stroke="#C39A4E" stroke-width="1.9"/>
</svg>
